<?xml version="1.0" encoding="UTF-8"?>
<svg id="Calque_1" xmlns="http://www.w3.org/2000/svg" version="1.1" viewBox="0 0 495.9 182.8">
  <!-- Generator: Adobe Illustrator 29.2.0, SVG Export Plug-In . SVG Version: 2.1.0 Build 108)  -->
  <defs>
    <style>
      .st0 {
        fill: #fff;
      }
    </style>
  </defs>
  <g>
    <path class="st0" d="M41.3,130.96C18.49,130.96.43,115.35.43,91.16s18.22-39.95,42.71-39.95c7.65,0,15.46,1.38,21.28,4.13v23.88c-5.51-3.98-12.4-6.89-19.9-6.89-10.56,0-19.59,5.82-19.59,18.22,0,10.56,8.11,19.13,23.11,19.13,7.96,0,15.15-2.14,20.67-4.75l-14.08,24.19c-4.13,1.22-8.73,1.84-13.32,1.84Z"/>
    <path class="st0" d="M69.62,53.05h23.27v11.02c3.52-8.11,11.94-13.78,25.56-12.25v21.74c-14.7-1.99-25.26,3.06-25.26,17.91v38.12h-23.57V53.05Z"/>
    <path class="st0" d="M161.92,130.96c-27.25,0-45.62-15.31-45.62-39.8s17.3-39.95,39.34-39.95c16.68,0,30.62,8.57,36.43,22.35v26.94l-51.43-.15c4.13,8.88,14.39,11.17,24.34,11.17,10.72,0,19.75-2.6,27.09-6.43l-14.7,23.73c-5.05,1.68-10.71,2.14-15.46,2.14ZM172.33,83.05c-1.38-6.89-7.19-12.55-16.38-12.55s-15.15,5.66-16.53,12.55h32.91Z"/>
    <path class="st0" d="M194.98,91.01c0-23.57,15.46-39.8,34.59-39.8,8.42,0,16.99,3.21,22.35,10.87v-9.03h23.27v76.54h-23.27v-9.8c-5.51,7.65-13.62,11.17-22.81,11.17-18.98,0-34.14-16.38-34.14-39.95ZM236.01,109.84c10.56,0,16.84-7.96,16.84-18.83s-6.28-18.83-16.84-18.68c-10.26.15-16.53,7.81-16.53,18.68s6.28,18.83,16.53,18.83Z"/>
  </g>
  <g>
    <polygon class="st0" points="277.66 113.43 308.16 0 322.64 35.6 302.8 109.7 343.24 86.53 335.68 114.55 299.54 135.3 277.66 113.43"/>
    <path class="st0" d="M365.87,135.51c-22.62-4.55-37.23-22.35-37.23-45.34,0-24.38,19.79-43.48,45.06-43.48,5.64,0,11.05.97,16.08,2.9l.11.04,14.78,31.87-7.61,28.05,40.58-23.17-7.56,28.16-36.29,20.76-21.5-21.5-6.16,21.76-.27-.05ZM373.7,68.88c-12.17,0-21,9.13-21,21.72,0,11.23,7.41,19.8,19.34,22.42l11.38-42.38c-3.07-1.19-6.17-1.75-9.71-1.75Z"/>
    <path class="st0" d="M450.41,135.52c-5.64,0-11.05-.97-16.08-2.9l-.06-.02-18.45-18.45L446.45.79l15.22,32.65-3.69,13.9c23.14,4.54,37.49,21.65,37.49,44.71,0,24.38-19.79,43.48-45.06,43.48ZM440.7,111.58c3.15,1.23,6.07,1.75,9.71,1.75,11.97,0,21-9.34,21-21.72,0-11.17-7.4-19.72-19.35-22.39l-11.37,42.35Z"/>
  </g>
</svg>